<?xml version='1.0' encoding='utf-8'?>
<svg xmlns="http://www.w3.org/2000/svg" width="10334" height="14101" viewBox="0 0 10334 14101" fill="none">
<g id="__handoff_purchasable_blocks__">
<g id="08_PURCHASABLE_BLOCK_GEOMETRY">
<g id="price_tier_cheap">
<path id="plot_005" d="M3861.44 5556H3739.36V5258.68L3861.44 5556Z" fill="#2AB799" stroke="#937D7A" stroke-width="3" stroke-linecap="round" data-price-tier="cheap" data-base-price="7000" />
<path id="plot_002" d="M3055.15 5556C3054.92 5315.77 3054.62 5077.44 3054.32 4865.5H3212.59L3217.79 5556H3055.15Z" fill="#2AB799" stroke="#937D7A" stroke-width="3" stroke-linecap="round" data-price-tier="cheap" data-base-price="9000" />
<path id="plot_003" d="M3343.41 5556H3237.79L3233.05 4926.5C3283.07 5100.57 3312.07 5239.07 3327.9 5343.17C3344.27 5450.93 3346.44 5521.29 3343.41 5556Z" fill="#2AB799" stroke="#937D7A" stroke-width="3" stroke-linecap="round" data-price-tier="cheap" data-base-price="8500" />
<path id="plot_001" d="M3235.75 4864.76C3276.31 4862.33 3398.56 4857.22 3531.42 4902.16L3536.29 5498.09L3536.7 5548L3536.76 5556H3363.47C3366.5 5518.14 3363.82 5446.45 3347.67 5340.16C3330.03 5224.09 3296.22 5066.14 3235.75 4864.76Z" fill="#2AB799" stroke="#937D7A" stroke-width="3" stroke-linecap="round" data-price-tier="cheap" data-base-price="9000" />
<path id="plot_004" d="M3556.29 5497.92L3554.91 5328.68C3553.9 5205.98 3552.68 5056.22 3551.66 4931.57C3584.72 4986.61 3622.72 5049.88 3654.32 5102.49C3673.23 5133.97 3689.85 5161.64 3701.74 5181.43C3707.68 5191.33 3712.44 5199.26 3715.72 5204.71C3717.28 5207.31 3718.51 5209.35 3719.36 5210.77V5556H3556.77C3556.75 5553.66 3556.72 5550.93 3556.7 5547.83L3556.29 5497.92Z" fill="#2AB799" stroke="#937D7A" stroke-width="3" stroke-linecap="round" data-price-tier="cheap" data-base-price="9000" />
</g>
<g id="price_tier_expensive">
<path id="plot_028" d="M4316.48 12238.1C4317.01 12213.4 4317.55 12188.8 4318.08 12164.2C4318.6 12140.4 4319.12 12116.7 4319.64 12093C4371.28 12102.6 4487.08 12121.7 4621.26 12136.4L4622.51 12136.6L4634 12135L4637.01 12187.6C4550.5 12201.8 4472.83 12214.3 4414.37 12223.5C4381.57 12228.6 4354.86 12232.7 4336.04 12235.4C4328 12236.5 4321.44 12237.4 4316.48 12238.1Z" fill="#2AB799" stroke="#937D7A" stroke-width="3" stroke-linecap="round" data-price-tier="expensive" data-base-price="21500" />
<path id="plot_027" d="M4007.34 12057.5C4025.08 12055.9 4045.3 12055.8 4071.86 12057.7C4072.08 12057.7 4072.29 12057.7 4072.51 12057.7C4120.32 12061.2 4188.62 12071.1 4299.71 12089.5C4299.17 12114.1 4298.63 12138.9 4298.09 12163.8C4297.56 12188.2 4297.03 12212.6 4296.5 12237.1L4067.04 12195.9L4007.34 12057.5Z" fill="#2AB799" stroke="#937D7A" stroke-width="3" stroke-linecap="round" data-price-tier="expensive" data-base-price="19000" />
</g>
<g id="price_tier_medium">
<path id="plot_007" d="M3612.49 11132H3463.43L3457.54 10811.5H3600.72L3612.49 11132Z" fill="#2AB799" stroke="#937D7A" stroke-width="3" stroke-linecap="round" data-price-tier="medium" data-base-price="16000" />
<path id="plot_006" d="M3443.42 11132H3294.36V10811.5H3437.54L3443.42 11132Z" fill="#2AB799" stroke="#937D7A" stroke-width="3" stroke-linecap="round" data-price-tier="medium" data-base-price="12500" />
<path id="plot_029" d="M4932.98 12159.2C5052.53 12139.3 5168.47 12120 5259.1 12104.8L5285.23 12133.8L5057.3 12190.3L5057.14 12190.4C5037.97 12195.8 5008.8 12204.1 4983.63 12211.3C4968.3 12215.7 4954.12 12219.8 4944.66 12222.6L4932.98 12159.2Z" fill="#2AB799" stroke="#937D7A" stroke-width="3" stroke-linecap="round" data-price-tier="medium" data-base-price="14000" />
<path id="plot_030" d="M5192.21 12364.7L5076.69 12206.1L5300.39 12150.7L5390.93 12251.2C5371.34 12265.6 5346.88 12278.2 5317.88 12290.8C5282.91 12306 5238.51 12333 5192.21 12364.7Z" fill="#2AB799" stroke="#937D7A" stroke-width="3" stroke-linecap="round" data-price-tier="medium" data-base-price="11500" />
<path id="plot_025" d="M5435.31 12199.9C5428.46 12214.5 5418.78 12227.1 5406.41 12238.5L5270.45 12087.5L5254.76 12068.5L5239.08 12049.5L5423.64 12018.3C5452.98 12105.9 5453.54 12161.1 5435.31 12199.9Z" fill="#2AB799" stroke="#937D7A" stroke-width="3" stroke-linecap="round" data-price-tier="medium" data-base-price="12500" />
<path id="plot_026" d="M4929.36 12139.5L4921.1 12094.6L5216.21 12053.2L5244.12 12087C5155.23 12101.9 5043.94 12120.5 4929.36 12139.5Z" fill="#2AB799" stroke="#937D7A" stroke-width="3" stroke-linecap="round" data-price-tier="medium" data-base-price="15000" />
<path id="plot_024" d="M4917.47 12074.9L4908.31 12025.2L5395.93 11941.8C5403.36 11961.5 5410.44 11980.6 5417 11999.1L5218.81 12032.6L4917.47 12074.9Z" fill="#2AB799" stroke="#937D7A" stroke-width="3" stroke-linecap="round" data-price-tier="medium" data-base-price="13000" />
<path id="plot_023" d="M4904.69 12005.5L4892.86 11941.2L5372.23 11879.9C5377.82 11894.5 5383.32 11908.8 5388.68 11922.8L4904.69 12005.5Z" fill="#2AB799" stroke="#937D7A" stroke-width="3" stroke-linecap="round" data-price-tier="medium" data-base-price="14000" />
<path id="plot_010" d="M5150.86 11132H5079.86V11046.7C5083.92 11047.6 5087.93 11048.5 5091.9 11049.3C5112.54 11053.4 5131.52 11066.4 5148.81 11085.9C5149.5 11086.7 5150.18 11087.5 5150.86 11088.3V11132Z" fill="#2AB799" stroke="#937D7A" stroke-width="3" stroke-linecap="round" data-price-tier="medium" data-base-price="16500" />
<path id="plot_009" d="M5059.86 11132H4977.36V11071.7V11011.4C5005.12 11024.2 5033.14 11034.3 5059.86 11041.7V11132Z" fill="#2AB799" stroke="#937D7A" stroke-width="3" stroke-linecap="round" data-price-tier="medium" data-base-price="16500" />
<path id="plot_008" d="M4957.36 11132H4850.36V10928.4C4881.99 10957.7 4919.06 10982.2 4957.36 11001.7V11132Z" fill="#2AB799" stroke="#937D7A" stroke-width="3" stroke-linecap="round" data-price-tier="medium" data-base-price="11500" />
<path id="plot_011" d="M5240.04 11311H5170.86V11115.8C5179.23 11129.1 5186.93 11143.8 5193.95 11159.2C5217.31 11210.5 5232.51 11269 5240.04 11311Z" fill="#2AB799" stroke="#937D7A" stroke-width="3" stroke-linecap="round" data-price-tier="medium" data-base-price="16500" />
<path id="plot_014" d="M5150.86 11311H5079.86V11152H5150.86V11311Z" fill="#2AB799" stroke="#937D7A" stroke-width="3" stroke-linecap="round" data-price-tier="medium" data-base-price="17500" />
<path id="plot_017" d="M5088.39 11703.9C5077.11 11600.5 5074.83 11492.1 5079.56 11331H5115.23H5150.9C5151.59 11490.6 5155.53 11600.7 5165.31 11687.3C5152.19 11690.5 5135.33 11694.4 5119.8 11697.7C5110.19 11699.8 5101.15 11701.6 5093.85 11703C5091.83 11703.3 5090.01 11703.7 5088.39 11703.9Z" fill="#2AB799" stroke="#937D7A" stroke-width="3" stroke-linecap="round" data-price-tier="medium" data-base-price="18000" />
<path id="plot_019" d="M5233.45 11699.1C5257.26 11696.3 5283.92 11693 5303.78 11690.5C5322.83 11749.7 5344.22 11806.8 5364.85 11860.7L5227.15 11878.3C5208.94 11825 5196.2 11772 5187.49 11704.2C5190.36 11703.9 5193.59 11703.6 5197.06 11703.2C5207.06 11702.2 5219.8 11700.7 5233.45 11699.1Z" fill="#2AB799" stroke="#937D7A" stroke-width="3" stroke-linecap="round" data-price-tier="medium" data-base-price="11000" />
<path id="plot_020" d="M5124.01 11717.3C5138.85 11714.1 5154.85 11710.4 5167.72 11707.3C5176.39 11774.5 5189 11827.8 5206.91 11880.9L5118.34 11892.2C5106.35 11831.9 5097.24 11778.1 5090.68 11723.8C5092.82 11723.5 5095.09 11723.1 5097.42 11722.7C5105.04 11721.3 5114.31 11719.4 5124.01 11717.3Z" fill="#2AB799" stroke="#937D7A" stroke-width="3" stroke-linecap="round" data-price-tier="medium" data-base-price="17500" />
<path id="plot_018" d="M5185.1 11684.3C5175.51 11599 5171.59 11490 5170.9 11331H5241.59C5239.27 11447.7 5264.15 11563 5297.66 11671.1C5278.29 11673.5 5253.43 11676.6 5231.1 11679.3C5217.48 11680.9 5204.84 11682.3 5194.96 11683.4C5191.15 11683.8 5187.84 11684.1 5185.1 11684.3Z" fill="#2AB799" stroke="#937D7A" stroke-width="3" stroke-linecap="round" data-price-tier="medium" data-base-price="17000" />
<path id="plot_021" d="M5022.81 11904.4C5011.53 11848.4 5002.83 11796.8 4996.2 11741.1L5070.9 11726.8C5077.48 11781.1 5086.58 11834.9 5098.45 11894.8L5022.81 11904.4Z" fill="#2AB799" stroke="#937D7A" stroke-width="3" stroke-linecap="round" data-price-tier="medium" data-base-price="14000" />
<path id="plot_016" d="M4993.93 11721.2C4983.19 11622 4978.55 11507.1 4977.42 11331H5059.56C5054.81 11492.6 5057.11 11602.1 5068.6 11706.9L4993.93 11721.2Z" fill="#2AB799" stroke="#937D7A" stroke-width="3" stroke-linecap="round" data-price-tier="medium" data-base-price="13500" />
<path id="plot_013" d="M5059.86 11311H4977.36V11152H5059.86V11311Z" fill="#2AB799" stroke="#937D7A" stroke-width="3" stroke-linecap="round" data-price-tier="medium" data-base-price="15000" />
<path id="plot_012" d="M4956.86 11311H4849.86V11152H4903.36H4956.86V11311Z" fill="#2AB799" stroke="#937D7A" stroke-width="3" stroke-linecap="round" data-price-tier="medium" data-base-price="16000" />
<path id="plot_022" d="M4868.86 11767.9C4905.11 11761.1 4941.2 11753.6 4976.56 11745.3C4983.19 11800.4 4991.82 11851.7 5002.92 11907L4889.35 11921.5C4883.3 11885.5 4875.78 11832.2 4868.86 11767.9Z" fill="#2AB799" stroke="#937D7A" stroke-width="3" stroke-linecap="round" data-price-tier="medium" data-base-price="14000" />
<path id="plot_015" d="M4866.76 11748C4854.71 11629.8 4845.23 11479 4850.02 11331H4957.42C4958.55 11508.6 4963.25 11624.7 4974.27 11725.3C4939.02 11733.6 4902.99 11741.1 4866.76 11748Z" fill="#2AB799" stroke="#937D7A" stroke-width="3" stroke-linecap="round" data-price-tier="medium" data-base-price="16500" />
</g>
</g>
</g>
</svg>